<svg width="10" height="10" viewBox="0 0 10 10" fill="none" xmlns="http://www.w3.org/2000/svg">
<path fill-rule="evenodd" clip-rule="evenodd" d="M0.269118 2.69225C0.100003 2.46378 0 2.18107 0 1.875C0 1.11561 0.615608 0.5 1.375 0.5C1.64743 0.5 1.90135 0.579227 2.11498 0.715896C1.34423 1.20596 0.706751 1.88693 0.269118 2.69225ZM9.37 5.255C9.37 7.67125 7.41125 9.63 4.995 9.63C2.57875 9.63 0.62 7.67125 0.62 5.255C0.62 2.83875 2.57875 0.88 4.995 0.88C7.41125 0.88 9.37 2.83875 9.37 5.255ZM5.38 5.875H3.25V5.12H4.63V2.5H5.38V5.875ZM8.625 0.5C8.35046 0.5 8.0947 0.580464 7.88004 0.719095C8.65102 1.21049 9.28829 1.89306 9.72509 2.70001C9.89771 2.4702 10 2.18455 10 1.875C10 1.11561 9.38439 0.5 8.625 0.5Z" fill="white"/>
</svg>
