<svg width="61" height="41" viewBox="0 0 61 41" fill="none" xmlns="http://www.w3.org/2000/svg">
<rect x="0.5" y="0.5" width="60" height="40" rx="3.5" stroke="#F3F3F3"/>
<path fill-rule="evenodd" clip-rule="evenodd" d="M22.3481 31.6629V33.1767V34.6905H21.6673V34.3229C21.4514 34.5955 21.1238 34.7666 20.6784 34.7666C19.8005 34.7666 19.1122 34.1018 19.1122 33.1767C19.1122 32.2523 19.8005 31.5867 20.6784 31.5867C21.1238 31.5867 21.4514 31.7578 21.6673 32.0304V31.6629H22.3481ZM20.7631 32.2073C20.1738 32.2073 19.8132 32.6445 19.8132 33.1767C19.8132 33.7088 20.1738 34.146 20.7631 34.146C21.3262 34.146 21.7063 33.7277 21.7063 33.1767C21.7063 32.6257 21.3262 32.2073 20.7631 32.2073ZM45.3534 33.1767C45.3534 32.6445 45.714 32.2073 46.3033 32.2073C46.8671 32.2073 47.2465 32.6257 47.2465 33.1767C47.2465 33.7277 46.8671 34.146 46.3033 34.146C45.714 34.146 45.3534 33.7088 45.3534 33.1767ZM47.8891 30.4471V33.1767V34.6905H47.2075V34.3229C46.9916 34.5955 46.664 34.7666 46.2186 34.7666C45.3407 34.7666 44.6524 34.1018 44.6524 33.1767C44.6524 32.2523 45.3407 31.5867 46.2186 31.5867C46.664 31.5867 46.9916 31.7578 47.2075 32.0304V30.4471H47.8891ZM30.7985 32.1762C31.2371 32.1762 31.519 32.4422 31.591 32.9106H29.9663C30.039 32.4734 30.3134 32.1762 30.7985 32.1762ZM29.2525 33.1767C29.2525 32.2327 29.8943 31.5867 30.812 31.5867C31.6892 31.5867 32.292 32.2327 32.2988 33.1767C32.2988 33.2651 32.292 33.3478 32.2853 33.4297H29.9603C30.0585 33.9749 30.4581 34.1714 30.8967 34.1714C31.2109 34.1714 31.5453 34.0568 31.8077 33.8545L32.1413 34.3425C31.7612 34.6528 31.3293 34.7666 30.8577 34.7666C29.9206 34.7666 29.2525 34.1395 29.2525 33.1767ZM39.0323 33.1767C39.0323 32.6445 39.3929 32.2073 39.9822 32.2073C40.5453 32.2073 40.9254 32.6257 40.9254 33.1767C40.9254 33.7277 40.5453 34.146 39.9822 34.146C39.3929 34.146 39.0323 33.7088 39.0323 33.1767ZM41.5672 31.6629V33.1767V34.6905H40.8864V34.3229C40.6697 34.5955 40.3428 34.7666 39.8975 34.7666C39.0195 34.7666 38.3313 34.1018 38.3313 33.1767C38.3313 32.2523 39.0195 31.5867 39.8975 31.5867C40.3428 31.5867 40.6697 31.7578 40.8864 32.0304V31.6629H41.5672ZM35.1875 33.1767C35.1875 34.0952 35.8488 34.7666 36.858 34.7666C37.3296 34.7666 37.6437 34.6651 37.9841 34.4055L37.6572 33.8734C37.4015 34.051 37.1331 34.146 36.8377 34.146C36.2941 34.1395 35.8945 33.7596 35.8945 33.1767C35.8945 32.5938 36.2941 32.2139 36.8377 32.2073C37.1331 32.2073 37.4015 32.3023 37.6572 32.4799L37.9841 31.9478C37.6437 31.6882 37.3296 31.5867 36.858 31.5867C35.8488 31.5867 35.1875 32.2581 35.1875 33.1767ZM43.1393 32.0304C43.3162 31.7644 43.5719 31.5867 43.9648 31.5867C44.1027 31.5867 44.2991 31.6121 44.4498 31.6694L44.2399 32.29C44.096 32.2327 43.952 32.2139 43.8141 32.2139C43.3687 32.2139 43.146 32.4923 43.146 32.9932V34.6904H42.4645V31.6629H43.1393V32.0304ZM25.7152 31.9036C25.3875 31.6948 24.9362 31.5867 24.4384 31.5867C23.6451 31.5867 23.1345 31.9543 23.1345 32.5561C23.1345 33.0498 23.5147 33.3543 24.2149 33.4493L24.5366 33.4935C24.9099 33.5442 25.0861 33.6392 25.0861 33.8103C25.0861 34.0445 24.8372 34.1779 24.3724 34.1779C23.9008 34.1779 23.5604 34.0322 23.331 33.8611L23.0101 34.3736C23.3835 34.6397 23.855 34.7666 24.3656 34.7666C25.2698 34.7666 25.7939 34.3548 25.7939 33.7784C25.7939 33.2463 25.3815 32.9679 24.7 32.8729L24.3791 32.8279C24.0845 32.7902 23.8483 32.7337 23.8483 32.5307C23.8483 32.3088 24.071 32.1762 24.4443 32.1762C24.844 32.1762 25.2308 32.3219 25.4205 32.4357L25.7152 31.9036ZM33.6746 32.0304C33.8507 31.7644 34.1064 31.5867 34.4993 31.5867C34.6372 31.5867 34.8337 31.6121 34.9844 31.6694L34.7744 32.29C34.6305 32.2327 34.4865 32.2139 34.3486 32.2139C33.9032 32.2139 33.6806 32.4923 33.6806 32.9932V34.6904H32.9998V31.6629H33.6746V32.0304ZM28.6894 31.6629H27.576V30.7443H26.8877V31.6629H26.2527V32.2646H26.8877V33.6457C26.8877 34.3483 27.1696 34.7666 27.9749 34.7666C28.2703 34.7666 28.6106 34.6781 28.8266 34.5324L28.6301 33.9684C28.427 34.0822 28.2043 34.1395 28.0273 34.1395C27.687 34.1395 27.576 33.9365 27.576 33.6327V32.2646H28.6894V31.6629ZM18.5101 32.7902V34.6904H17.8218V33.0056C17.8218 32.4923 17.5992 32.2073 17.1343 32.2073C16.6822 32.2073 16.3681 32.4865 16.3681 33.0121V34.6904H15.6798V33.0056C15.6798 32.4923 15.4511 32.2073 14.999 32.2073C14.5334 32.2073 14.232 32.4865 14.232 33.0121V34.6904H13.5445V31.6629H14.226V32.0362C14.4817 31.6817 14.8086 31.5867 15.143 31.5867C15.6213 31.5867 15.9617 31.7897 16.1776 32.1254C16.4663 31.7006 16.8787 31.5802 17.2783 31.5867C18.0385 31.5933 18.5101 32.0747 18.5101 32.7902Z" fill="white"/>
<path d="M35.8075 26.5184H25.4895V8.5878H35.8075V26.5184Z" fill="#FF5F00"/>
<path d="M26.1441 17.5534C26.1441 13.9161 27.9052 10.6761 30.6478 8.58816C28.6422 7.06132 26.1111 6.15 23.3603 6.15C16.8479 6.15 11.569 11.2554 11.569 17.5534C11.569 23.8515 16.8479 28.9569 23.3603 28.9569C26.1111 28.9569 28.6422 28.0456 30.6478 26.5187C27.9052 24.4307 26.1441 21.1907 26.1441 17.5534Z" fill="#EB001B"/>
<path d="M49.7274 17.5534C49.7274 23.8515 44.4484 28.9569 37.9361 28.9569C35.1853 28.9569 32.6542 28.0456 30.6478 26.5187C33.3912 24.4307 35.1523 21.1907 35.1523 17.5534C35.1523 13.9161 33.3912 10.6761 30.6478 8.58816C32.6542 7.06132 35.1853 6.15 37.9361 6.15C44.4484 6.15 49.7274 11.2554 49.7274 17.5534Z" fill="#F79E1B"/>
</svg>
