<svg width="55" height="55" viewBox="0 0 55 55" fill="none" xmlns="http://www.w3.org/2000/svg">
<path d="M10.0053 48.6624V45.8299C10.0219 45.5917 9.9875 45.3527 9.90444 45.1288C9.82138 44.9049 9.69154 44.7013 9.52357 44.5315C9.3556 44.3618 9.15337 44.2298 8.93036 44.1443C8.70736 44.0589 8.46871 44.022 8.23032 44.0361C7.91833 44.0158 7.60658 44.0795 7.32761 44.2207C7.04863 44.3618 6.81261 44.5752 6.64417 44.8386C6.49066 44.5831 6.27108 44.3737 6.00855 44.2324C5.74602 44.0912 5.45027 44.0234 5.15243 44.0361C4.89282 44.0231 4.63428 44.0781 4.40245 44.1956C4.17061 44.3132 3.9735 44.4893 3.83064 44.7065V44.1494H2.84869V48.6624H3.84003V46.1604C3.8186 46.006 3.83163 45.8488 3.87817 45.7C3.92472 45.5513 4.00363 45.4147 4.10924 45.3C4.21485 45.1854 4.34454 45.0956 4.48899 45.037C4.63344 44.9785 4.78907 44.9526 4.94469 44.9614C5.59614 44.9614 5.92664 45.3862 5.92664 46.151V48.6624H6.91798V46.1604C6.89815 46.0063 6.9123 45.8497 6.95944 45.7017C7.00658 45.5536 7.08557 45.4177 7.19084 45.3034C7.29612 45.1892 7.42513 45.0993 7.56883 45.0402C7.71253 44.9811 7.86741 44.9542 8.02262 44.9614C8.69291 44.9614 9.01392 45.3862 9.01392 46.151V48.6624H10.0053ZM24.6772 44.1494H23.0722V42.7804H22.0808V44.1494H21.165V45.0463H22.0808V47.1046C22.0808 48.1525 22.4868 48.7757 23.6481 48.7757C24.0819 48.777 24.5073 48.6559 24.8754 48.4263L24.5922 47.5861C24.3289 47.7431 24.0301 47.8309 23.7236 47.841C23.2326 47.841 23.0722 47.5388 23.0722 47.0857V45.0463H24.6772V44.1494ZM33.0517 44.0361C32.8123 44.0291 32.5754 44.0867 32.366 44.203C32.1567 44.3194 31.9826 44.49 31.8621 44.697V44.1494H30.8896V48.6624H31.8715V46.1321C31.8715 45.3862 32.1925 44.9708 32.8346 44.9708C33.0446 44.9679 33.2531 45.0064 33.4482 45.0841L33.7503 44.1588C33.5261 44.0786 33.2898 44.0371 33.0517 44.0361ZM20.3908 44.5082C19.835 44.1777 19.196 44.0138 18.5497 44.0361C17.4073 44.0361 16.6709 44.5837 16.6709 45.4806C16.6709 46.2171 17.2185 46.6703 18.2287 46.8119L18.6913 46.8779C19.2295 46.9534 19.4844 47.0951 19.4844 47.35C19.4844 47.6993 19.1256 47.8976 18.4553 47.8976C17.9161 47.9132 17.3874 47.7469 16.9541 47.4255L16.4915 48.1903C17.0634 48.5897 17.7485 48.7949 18.4459 48.7757C19.7488 48.7757 20.504 48.162 20.504 47.3028C20.504 46.5097 19.9093 46.0943 18.9274 45.9526L18.4648 45.8866C18.0399 45.8299 17.7 45.7451 17.7 45.4429C17.7 45.1124 18.0209 44.9142 18.5592 44.9142C19.0534 44.9216 19.5375 45.0548 19.9659 45.3012L20.3908 44.5082ZM46.6945 44.0361C46.455 44.0291 46.2182 44.0867 46.0088 44.203C45.7994 44.3194 45.6253 44.49 45.5049 44.697V44.1494H44.5324V48.6624H45.5142V46.1321C45.5142 45.3862 45.8353 44.9708 46.4773 44.9708C46.6873 44.9679 46.8959 45.0064 47.091 45.0841L47.3932 44.1588C47.1689 44.0786 46.9326 44.0371 46.6945 44.0361ZM34.043 46.4058C34.0299 46.7237 34.0836 47.0409 34.2005 47.3368C34.3174 47.6328 34.4949 47.901 34.7217 48.1242C34.9484 48.3475 35.2194 48.5207 35.5172 48.633C35.815 48.7452 36.1329 48.7938 36.4506 48.7757C37.0401 48.8053 37.6194 48.6133 38.0745 48.2375L37.6024 47.4444C37.263 47.7032 36.8491 47.8456 36.4222 47.8504C36.0543 47.8281 35.7087 47.6662 35.4561 47.3977C35.2034 47.1293 35.0627 46.7745 35.0627 46.4059C35.0627 46.0372 35.2034 45.6825 35.4561 45.4141C35.7087 45.1456 36.0543 44.9837 36.4222 44.9614C36.8491 44.9662 37.263 45.1086 37.6024 45.3674L38.0745 44.5743C37.6193 44.1985 37.0401 44.0065 36.4506 44.0361C36.1329 44.0181 35.815 44.0667 35.5173 44.1789C35.2195 44.291 34.9485 44.4643 34.7217 44.6875C34.495 44.9107 34.3174 45.1789 34.2005 45.4748C34.0836 45.7708 34.03 46.0879 34.043 46.4058ZM43.2389 46.4058V44.1494H42.257V44.697C42.0894 44.481 41.8725 44.3083 41.6245 44.1933C41.3764 44.0784 41.1045 44.0245 40.8313 44.0361C40.2229 44.066 39.6493 44.3287 39.2292 44.7698C38.8092 45.211 38.5749 45.7968 38.5749 46.4059C38.5749 47.0151 38.8092 47.6009 39.2292 48.042C39.6493 48.4832 40.2229 48.7459 40.8313 48.7757C41.1045 48.7874 41.3765 48.7335 41.6245 48.6185C41.8725 48.5035 42.0894 48.3307 42.257 48.1147V48.6624H43.2389V46.4058ZM39.5851 46.4058C39.6003 46.1395 39.6931 45.8835 39.8521 45.6693C40.0112 45.4551 40.2294 45.2922 40.4799 45.2005C40.7304 45.1089 41.0022 45.0926 41.2619 45.1536C41.5216 45.2146 41.7577 45.3502 41.9412 45.5439C42.1247 45.7375 42.2475 45.9805 42.2945 46.2431C42.3415 46.5057 42.3106 46.7763 42.2057 47.0215C42.1007 47.2667 41.9263 47.4759 41.7039 47.6232C41.4815 47.7705 41.2209 47.8495 40.9541 47.8504C40.7672 47.8529 40.5817 47.8167 40.4094 47.744C40.2372 47.6713 40.0818 47.5637 39.9532 47.428C39.8246 47.2922 39.7255 47.1314 39.6621 46.9554C39.5987 46.7795 39.5725 46.5924 39.5851 46.4058ZM27.7362 44.0361C27.1239 44.0684 26.5478 44.3365 26.1289 44.7842C25.71 45.232 25.4808 45.8246 25.4893 46.4377C25.4979 47.0508 25.7435 47.6368 26.1748 48.0727C26.606 48.5086 27.1893 48.7606 27.8023 48.7757C28.4759 48.7994 29.1347 48.5742 29.6528 48.1431L29.1713 47.4161C28.7984 47.7149 28.3367 47.881 27.8589 47.8882C27.5345 47.9155 27.2121 47.8154 26.9601 47.6092C26.7081 47.4031 26.5463 47.1069 26.5088 46.7835H29.8605C29.87 46.6608 29.8794 46.5381 29.8794 46.4058C29.87 44.9991 29.0013 44.0361 27.7362 44.0361ZM27.7173 44.9142C28.0139 44.9084 28.3006 45.0204 28.5148 45.2257C28.7289 45.431 28.853 45.7128 28.8597 46.0094H26.5182C26.5355 45.7064 26.6706 45.4222 26.8947 45.2175C27.1187 45.0128 27.414 44.904 27.7173 44.9142ZM52.3498 46.4058V42.3367H51.3679V44.697C51.2003 44.481 50.9834 44.3083 50.7354 44.1933C50.4874 44.0784 50.2154 44.0245 49.9423 44.0361C49.3339 44.0659 48.7602 44.3286 48.3401 44.7698C47.92 45.2109 47.6857 45.7968 47.6857 46.4059C47.6857 47.0151 47.92 47.6009 48.3401 48.0421C48.7602 48.4832 49.3339 48.7459 49.9423 48.7757C50.2154 48.7874 50.4874 48.7335 50.7354 48.6185C50.9834 48.5035 51.2003 48.3307 51.3679 48.1147V48.6624H52.3498V46.4058ZM53.9866 48.0084C54.0476 48.008 54.108 48.0199 54.1642 48.0436C54.2183 48.0661 54.2676 48.0988 54.3094 48.1398C54.3509 48.1807 54.3841 48.2292 54.4072 48.2827C54.4308 48.3377 54.443 48.3968 54.443 48.4567C54.443 48.5165 54.4308 48.5757 54.4072 48.6307C54.3839 48.6839 54.3508 48.7323 54.3094 48.773C54.2674 48.814 54.2182 48.8468 54.1642 48.8697C54.1081 48.8938 54.0477 48.9059 53.9866 48.9055C53.8968 48.9064 53.8087 48.8808 53.7333 48.832C53.658 48.7831 53.5987 48.7131 53.5628 48.6307C53.5393 48.5757 53.5272 48.5165 53.5272 48.4567C53.5272 48.3969 53.5393 48.3377 53.5628 48.2827C53.5859 48.2293 53.6189 48.1807 53.6602 48.1398C53.702 48.0985 53.7515 48.0658 53.8059 48.0436C53.8632 48.0199 53.9246 48.0079 53.9866 48.0084ZM53.9866 48.8066C54.0331 48.8069 54.0793 48.7976 54.1219 48.7791C54.1629 48.7613 54.2002 48.7359 54.2318 48.7043C54.297 48.6385 54.3336 48.5495 54.3336 48.4569C54.3336 48.3642 54.297 48.2753 54.2318 48.2095C54.2003 48.178 54.163 48.1528 54.1219 48.1354C54.0792 48.1172 54.0331 48.108 53.9866 48.1084C53.9393 48.1081 53.8924 48.1172 53.8487 48.1354C53.807 48.1525 53.7691 48.1777 53.7371 48.2095C53.6719 48.2753 53.6353 48.3642 53.6353 48.4569C53.6353 48.5496 53.6719 48.6385 53.7371 48.7043C53.7692 48.7362 53.807 48.7615 53.8487 48.7791C53.8923 48.7975 53.9392 48.8069 53.9866 48.8066ZM54.013 48.2469C54.0572 48.244 54.101 48.2567 54.1368 48.2827C54.151 48.2944 54.1624 48.3093 54.1699 48.3262C54.1774 48.3431 54.1809 48.3615 54.1802 48.38C54.1807 48.3958 54.1778 48.4116 54.1719 48.4262C54.1659 48.4409 54.1569 48.4541 54.1455 48.4651C54.1182 48.4894 54.0836 48.5039 54.0471 48.5064L54.1835 48.6636H54.0768L53.9504 48.5075H53.9097V48.6636H53.8207V48.2469H54.013ZM53.9097 48.325V48.4361H54.012C54.0316 48.437 54.0511 48.4322 54.0681 48.4222C54.075 48.4177 54.0805 48.4113 54.0842 48.4039C54.0878 48.3965 54.0894 48.3882 54.0889 48.38C54.0894 48.3719 54.0877 48.3638 54.084 48.3565C54.0804 48.3493 54.0749 48.3431 54.0681 48.3387C54.0511 48.3288 54.0316 48.3241 54.012 48.325H53.9097ZM48.696 46.4058C48.7113 46.1395 48.8042 45.8835 48.9632 45.6694C49.1222 45.4552 49.3404 45.2923 49.5909 45.2006C49.8414 45.109 50.1132 45.0927 50.3729 45.1537C50.6325 45.2147 50.8687 45.3504 51.0521 45.544C51.2356 45.7376 51.3584 45.9807 51.4054 46.2433C51.4524 46.5058 51.4215 46.7764 51.3165 47.0216C51.2116 47.2668 51.0371 47.476 50.8148 47.6232C50.5924 47.7705 50.3317 47.8495 50.065 47.8504C49.878 47.8529 49.6926 47.8167 49.5203 47.744C49.3481 47.6713 49.1927 47.5637 49.0641 47.4279C48.9355 47.2922 48.8364 47.1313 48.7731 46.9554C48.7097 46.7795 48.6835 46.5924 48.696 46.4058ZM15.5379 46.4058V44.1494H14.556V44.697C14.3884 44.481 14.1715 44.3083 13.9235 44.1933C13.6754 44.0784 13.4035 44.0245 13.1303 44.0361C12.5219 44.066 11.9483 44.3287 11.5282 44.7698C11.1082 45.211 10.8739 45.7968 10.8739 46.4059C10.8739 47.0151 11.1082 47.6009 11.5282 48.042C11.9483 48.4832 12.5219 48.7459 13.1303 48.7757C13.4035 48.7874 13.6754 48.7335 13.9235 48.6185C14.1715 48.5035 14.3884 48.3307 14.556 48.1147V48.6624H15.5379V46.4058ZM11.8841 46.4058C11.8994 46.1395 11.9923 45.8835 12.1513 45.6694C12.3103 45.4552 12.5285 45.2923 12.779 45.2006C13.0295 45.109 13.3013 45.0927 13.561 45.1537C13.8206 45.2147 14.0568 45.3504 14.2402 45.544C14.4237 45.7376 14.5465 45.9807 14.5935 46.2433C14.6405 46.5058 14.6096 46.7764 14.5046 47.0216C14.3997 47.2668 14.2252 47.476 14.0028 47.6232C13.7805 47.7705 13.5198 47.8495 13.2531 47.8504C13.0661 47.8529 12.8807 47.8167 12.7084 47.744C12.5362 47.6713 12.3808 47.5637 12.2522 47.4279C12.1236 47.2922 12.0245 47.1313 11.9612 46.9554C11.8978 46.7795 11.8716 46.5924 11.8841 46.4058Z" fill="white"/>
<path d="M34.9366 9.75603H20.0644V36.4818H34.9366V9.75603Z" fill="#FF5F00"/>
<path d="M21.0086 23.1198C21.0062 20.546 21.5895 18.0053 22.7142 15.6901C23.8389 13.375 25.4756 11.3461 27.5003 9.75697C24.993 7.78611 21.9817 6.56047 18.8107 6.22012C15.6396 5.87977 12.4368 6.43846 9.56833 7.83231C6.69982 9.22617 4.28133 11.399 2.58931 14.1023C0.897292 16.8057 0 19.9306 0 23.1198C0 26.3091 0.897292 29.434 2.58931 32.1374C4.28133 34.8407 6.69982 37.0135 9.56833 38.4074C12.4368 39.8013 15.6396 40.3599 18.8107 40.0196C21.9817 39.6792 24.993 38.4536 27.5003 36.4827C25.4756 34.8936 23.8389 32.8647 22.7142 30.5496C21.5895 28.2344 21.0062 25.6937 21.0086 23.1198Z" fill="#EB001B"/>
<path d="M55 23.1198C55.0001 26.309 54.1029 29.4339 52.411 32.1373C50.7191 34.8407 48.3007 37.0135 45.4322 38.4074C42.5638 39.8012 39.361 40.3599 36.19 40.0196C33.0191 39.6792 30.0078 38.4536 27.5005 36.4827C29.5235 34.892 31.1589 32.8628 32.2834 30.548C33.408 28.2332 33.9922 25.6933 33.9922 23.1198C33.9922 20.5464 33.408 18.0065 32.2834 15.6917C31.1589 13.3769 29.5235 11.3477 27.5005 9.75697C30.0078 7.78611 33.0191 6.56046 36.19 6.22012C39.361 5.87977 42.5638 6.43847 45.4322 7.83234C48.3007 9.22621 50.7191 11.399 52.411 14.1024C54.1029 16.8058 55.0001 19.9307 55 23.1198Z" fill="#F79E1B"/>
<path d="M53.3785 33.6515V33.1043H53.5991V32.9929H53.0372V33.1043H53.258V33.6515H53.3785ZM54.4694 33.6515V32.9918H54.2971L54.099 33.4456L53.9009 32.9918H53.7285V33.6515H53.8502V33.1539L54.0359 33.5829H54.162L54.3478 33.1528V33.6515H54.4694Z" fill="white"/>
</svg>
