<svg width="55" height="16" viewBox="0 0 55 16" fill="none" xmlns="http://www.w3.org/2000/svg">
<path fill-rule="evenodd" clip-rule="evenodd" d="M5.08603 0.983029C5.57739 0.980089 7.03769 0.848566 7.65625 2.9362C8.07292 4.34245 8.73664 6.64595 9.64743 9.8467H10.0183C10.9951 6.47224 11.6661 4.16874 12.0312 2.9362C12.6562 0.82682 14.2188 0.98307 14.8438 0.98307L19.6658 0.983076V15.983H14.751V7.14331H14.4215L11.6817 15.983H7.98403L5.24431 7.13676H4.91474V15.983H0V0.983076L5.08603 0.983029ZM26.7232 0.983076V9.82939H27.1153L30.4479 2.55513C31.0949 1.10753 32.4736 0.983076 32.4736 0.983076H37.2296V15.9831H32.2123V7.13676H31.8202L28.5529 14.411C27.906 15.8521 26.4619 15.9831 26.4619 15.9831H21.7059V0.983076H26.7232ZM54.572 8.11117C53.8721 10.0944 51.6742 11.5148 49.2409 11.5148H43.9791V15.9831H39.2079V8.11117H54.572Z" fill="white"/>
<path fill-rule="evenodd" clip-rule="evenodd" d="M49.4709 0.983078H38.9577C39.2079 4.32259 42.0838 7.18142 45.0609 7.18142H54.9035C55.4714 4.4059 53.5161 0.983078 49.4709 0.983078Z" fill="url(#paint0_linear_118_61)"/>
<defs>
<linearGradient id="paint0_linear_118_61" x1="55" y1="4.8821" x2="38.9577" y2="4.8821" gradientUnits="userSpaceOnUse">
<stop stop-color="white"/>
<stop offset="1" stop-color="#02AEFF"/>
</linearGradient>
</defs>
</svg>
