<svg width="62" height="23" viewBox="0 0 62 23" fill="none" xmlns="http://www.w3.org/2000/svg">
<path d="M30.6984 0.406256L26.5562 22.6508H21.5461L25.6886 0.406256H30.6984ZM51.7758 14.7698L54.4126 6.41655L55.9301 14.7698H51.7758ZM57.3674 22.6508H62L57.9528 0.406256H53.6796C52.7166 0.406256 51.9047 1.04766 51.5454 2.03678L44.0281 22.6508H49.2896L50.3341 19.3287H56.7607L57.3674 22.6508ZM44.289 15.3887C44.3108 9.518 37.2239 9.1928 37.2713 6.56964C37.2866 5.77264 37.9486 4.9236 39.3955 4.70647C40.1129 4.6004 42.0925 4.51435 44.3365 5.7021L45.2141 0.98312C44.0089 0.482304 42.4579 0 40.528 0C35.5753 0 32.0913 3.02191 32.0634 7.35264C32.0316 10.5552 34.5522 12.3408 36.4473 13.4075C38.4012 14.4976 39.0558 15.1966 39.0462 16.1707C39.0327 17.6631 37.4883 18.3241 36.05 18.3491C33.5299 18.3941 32.0691 17.5666 30.9048 16.9432L29.9954 21.8198C31.1679 22.4361 33.3283 22.9725 35.5653 23C40.8307 23 44.2733 20.0136 44.289 15.3887ZM23.5396 0.406256L15.4221 22.6508H10.1271L6.13218 4.89809C5.89002 3.8064 5.67877 3.40515 4.94225 2.94386C3.7375 2.19238 1.74875 1.48944 0 1.05216L0.118472 0.406256H8.64316C9.729 0.406256 10.706 1.23628 10.9547 2.67318L13.0649 15.5463L18.2763 0.406256H23.5396Z" fill="#F9F9F9" fill-opacity="0.94"/>
</svg>
