<svg width="17" height="10" viewBox="0 0 17 10" fill="none" xmlns="http://www.w3.org/2000/svg">
<path fill-rule="evenodd" clip-rule="evenodd" d="M14.5 0H15.5C16.0523 0 16.5 0.447715 16.5 1V9C16.5 9.55229 16.0523 10 15.5 10H14.5C13.9477 10 13.5 9.55229 13.5 9V1C13.5 0.447715 13.9477 0 14.5 0Z" fill="white"/>
<path d="M11 2H10C9.44771 2 9 2.44772 9 3V9C9 9.55228 9.44771 10 10 10H11C11.5523 10 12 9.55228 12 9V3C12 2.44772 11.5523 2 11 2Z" fill="white"/>
<path d="M5.5 4H6.5C7.05228 4 7.5 4.44772 7.5 5V9C7.5 9.55228 7.05228 10 6.5 10H5.5C4.94772 10 4.5 9.55228 4.5 9V5C4.5 4.44772 4.94772 4 5.5 4Z" fill="white"/>
<path d="M1 5.5H2C2.55228 5.5 3 5.94772 3 6.5V9C3 9.55228 2.55228 10 2 10H1C0.447715 10 0 9.55228 0 9V6.5C0 5.94772 0.447715 5.5 1 5.5Z" fill="white"/>
</svg>
